<?xml version="1.0" encoding="UTF-8"?>
<!DOCTYPE svg PUBLIC "-//W3C//DTD SVG 1.1//EN" "http://www.w3.org/Graphics/SVG/1.1/DTD/svg11.dtd">
<!-- Creator: CorelDRAW -->
<svg xmlns="http://www.w3.org/2000/svg" xml:space="preserve" width="41.1822mm" height="41.1822mm" version="1.1" style="shape-rendering:geometricPrecision; text-rendering:geometricPrecision; image-rendering:optimizeQuality; fill-rule:evenodd; clip-rule:evenodd"
viewBox="0 0 322.69 322.69"
 xmlns:xlink="http://www.w3.org/1999/xlink">
 <defs>
  <style type="text/css">
   <![CDATA[
    .str0 {stroke:white;stroke-width:11.06;stroke-miterlimit:22.9256}
    .str1 {stroke:white;stroke-width:1.57;stroke-miterlimit:22.9256}
    .fil1 {fill:none}
    .fil0 {fill:black}
    .fil2 {fill:white}
   ]]>
  </style>
 </defs>
 <g id="Layer_x0020_1">
  <metadata id="CorelCorpID_0Corel-Layer"/>
  <g id="_105556553865344">
   <circle class="fil0" cx="161.35" cy="161.35" r="161.35"/>
   <polyline class="fil1 str0" points="219.98,201.18 134.06,271.12 95.62,233.77 95.62,175.83 138.84,142.99 138.84,171.75 138.84,239.44 "/>
   <path class="fil2 str1" d="M175.38 223.17l-40.55 31.21 0 -51.95 15.35 7.85c-0.84,5.49 -5.03,12.58 2.29,17 1.85,1.12 5.55,0.93 8.25,-0.02 7,-2.47 3.71,-11.83 -0.57,-11.24 -0.36,-0.33 -0.02,-0.22 -0.63,-0.22 -6,0.06 -5.18,8.96 -0.69,8.68 -0.17,-0.66 0.17,0.14 0.34,0.76 -2.85,-0.72 -2.39,-0.42 -4.22,-0.38 -5.89,-3.44 -3.56,-8.44 -2.29,-13.32l22.72 11.63z"/>
   <g>
    <path class="fil2 str1" d="M149.14 68.4c1.67,8.82 1.46,12.3 5.73,20.68 1.3,2.55 3.17,5.75 4.91,7.93 2.65,3.3 3.69,3.06 5.93,7.61 0.85,0.27 -0.25,-0.27 1.01,0.44l-2.84 12.04c-0.58,2.69 0.36,1.54 -1.05,3.93 -4.76,0.6 -5.96,-0.44 -11.85,1.26 -7.14,3.3 -12.32,10.79 -12.83,17.7l-1.46 -1.49c-0.39,6.61 -1.56,10.86 2.53,18.11 3.47,6.15 7.52,7.46 11.88,10.27l1.3 0.66c0.06,0.03 0.23,0.1 0.28,0.12 0.07,0.03 0.28,0.07 0.42,0.12 0.11,5.68 -5.06,17.56 -4.27,27.4 -0.64,-0.98 -0.37,-0.82 -0.9,-1.75 -0.75,-1.32 -0.11,-0.45 -0.81,-1.16 1.09,8.54 1.77,11.91 7.88,15.61 4.44,2.68 11.42,3.7 17.87,1.42 16.76,-5.92 10.77,-26.65 0.52,-25.24 -2.33,3.21 -6.85,0.95 -8.03,8.66l-1.64 -0.98c-0.16,6.08 1.06,11.49 8.1,11.05 1.18,0.21 0.22,-0.08 1.56,0.34 0.86,0.27 1,0.4 1.14,0.45 -0.16,6.45 -7.68,5 -12.41,4.72 1.81,-0.99 0.8,-0.46 1.53,-1.42 -7.6,-0.2 -12.99,-6.62 -12.76,-15.97 0.11,-4.31 2.66,-18.87 4.25,-21.92 33.28,9.22 53.6,-30.41 35.63,-57.1 -3.81,-5.65 -8.78,-10.89 -13.04,-15.13 -8.16,-8.12 -6.36,-7.82 -3.91,-18.85 1.54,-6.95 1.19,-16.29 -0.64,-23.86 -0.95,-3.92 -2.38,-7.72 -4.33,-10.79l-4.84 -5.65c-2.08,-1.46 -0.27,-0.87 -2.59,-0.88 -0.71,2.62 -0.57,0.83 -2.81,3.51 -1.72,2.06 -5.21,10.29 -6.17,13.06 -1.68,4.84 -2.21,16.24 -0.96,21.66l-1.38 -5.3c-0.7,-1.5 -0.03,-0.46 -0.98,-1.29zm20.55 18.58c1.68,-5.97 1.03,-25.2 -4.58,-32.48 -8.96,-11.61 -20.42,4.81 -2.65,25.67 1.21,1.42 2.13,2.46 3.44,3.7 3.72,3.52 1.81,2.74 3.79,3.1zm-18.65 77.39c1.98,-1.02 1.33,-0.97 1.97,-3.85l2.68 -12.21c0.65,-3.69 2.21,-13.45 3.57,-15.81 -0.91,-1.04 -1.48,-1.52 -5.7,-0.19 -1.84,0.58 -3.6,1.6 -4.86,2.7 -2.05,1.78 -4.23,5.48 -4.96,8.51 -3.15,12.98 5.34,18.2 7.29,20.86zm13.79 -7.07l1.75 -1.66c7.34,-4.37 3.81,-5.47 5.76,-10.78 -0.33,-6.71 -4.52,-11.47 -9.19,-12.48 -1.65,2.64 -6.85,28.53 -7.03,33.13l1.36 0.02c4.28,-0.15 7.65,1.1 12.9,0.23 21.3,-3.52 18.91,-22.75 20.5,-25.24 -2.91,-9.96 -2.4,-12.84 -8.78,-20.51l-13.35 -13.82c-1.96,3.56 -3.25,10.08 -3.52,14.85 15.85,4.46 20.07,33.28 -0.99,37.4l0.6 -1.15z"/>
    <path class="fil2 str1" d="M157.48 165.54c-0.66,1.1 1.61,0.89 -1.46,1.33 7.3,1.88 18.79,1.75 26.07,-4.01 6.77,-5.35 10.68,-12.19 9.85,-21.44l-1.06 -0.89c-1.58,2.49 0.8,21.72 -20.49,25.24 -5.25,0.87 -8.62,-0.38 -12.9,-0.23z"/>
    <path class="fil2 str1" d="M149.14 68.4c0.95,0.83 0.28,-0.22 0.98,1.29l1.38 5.3c-1.25,-5.42 -0.72,-16.81 0.96,-21.66 0.96,-2.78 4.45,-11.01 6.17,-13.06 2.24,-2.68 2.1,-0.9 2.81,-3.51 -1.55,-2.38 -5.59,3.88 -5.98,4.6 -1.26,2.33 -2.47,5.22 -3.41,7.97 -1.52,4.46 -3.84,13.38 -2.9,19.08z"/>
    <path class="fil2 str1" d="M151.03 164.37c0.83,1.91 -0.47,1.02 1.92,1.44 1.65,-1.65 0.73,-0.38 1.59,-3.78l2.74 -12.68c1.01,-5.5 2.72,-11.23 3.38,-16.61 -1.01,-0.72 0.16,-0.33 -1.39,-0.23 -1.36,2.36 -2.92,12.12 -3.57,15.82l-2.68 12.21c-0.64,2.88 0,2.83 -1.97,3.85z"/>
    <path class="fil2 str1" d="M136.7 138.51l1.46 1.49c0.52,-6.91 5.69,-14.4 12.83,-17.7 0.5,-0.51 -0.3,-0.2 1.5,-1.25 1.11,-0.65 0.84,-0.35 2.04,-0.63l-3.16 -0.07c-4.59,1.44 -7.51,4.23 -9.84,7.11 -1.72,2.12 -5.16,7 -4.82,11.06z"/>
    <path class="fil2 str1" d="M147.12 192.29c0.7,0.71 0.06,-0.16 0.81,1.16 0.53,0.93 0.25,0.77 0.9,1.75 -0.79,-9.84 4.38,-21.72 4.27,-27.4 -0.13,-0.06 -0.35,-0.09 -0.42,-0.12 -0.05,-0.02 -0.22,-0.1 -0.28,-0.12l-1.3 -0.66c1.12,4.57 -4.25,17.73 -3.99,25.4z"/>
    <path class="fil2 str1" d="M151.36 120.34l3.16 0.07c-1.2,0.28 -0.92,-0.02 -2.04,0.63 -1.8,1.05 -1,0.74 -1.5,1.25 5.89,-1.7 7.09,-0.66 11.85,-1.26 1.41,-2.39 0.47,-1.24 1.05,-3.93l2.84 -12.04c-1.26,-0.71 -0.17,-0.17 -1.01,-0.44 -1.34,2.27 -3.77,13.18 -3.68,15.01 -3.28,-0.63 -6.89,-0.22 -10.67,0.71z"/>
    <path class="fil2 str1" d="M164.82 157.3c7.04,-1.46 9.76,-5.85 9.06,-12.33 -0.93,-0.81 0.27,-0.34 -1.54,-0.1 -1.96,5.3 1.58,6.4 -5.76,10.78l-1.75 1.66z"/>
    <path class="fil2 str1" d="M163.65 206.9c-0.72,0.96 0.28,0.43 -1.53,1.42 4.73,0.28 12.25,1.73 12.41,-4.72 -0.13,-0.05 -0.28,-0.19 -1.14,-0.46 -1.33,-0.42 -0.38,-0.13 -1.56,-0.34 0.79,0.84 0.42,0.34 0.81,1.81 -2.66,3.29 -4.61,2.2 -9,2.29z"/>
    <path class="fil2 str1" d="M163.73 191.75l1.63 0.98c1.18,-7.71 5.69,-5.45 8.03,-8.66 -0.85,-0.79 -0.05,-0.54 -1.51,-0.52 -3.36,0.04 -7.75,3.83 -8.15,8.2z"/>
   </g>
   <polygon class="fil2 str1" points="142.04,206.36 175.22,223.34 134.29,254.85 134.29,206.39 "/>
   <polygon class="fil2" points="179.78,164.42 187.92,156.86 224.48,204.26 215.73,211.01 "/>
  </g>
 </g>
</svg>
