<svg xmlns="http://www.w3.org/2000/svg" width="20" height="20" viewBox="0 0 20 20">
  <g id="Search_20" data-name="Search 20" transform="translate(-3.275 -3.475)">
    <path id="Path_860" data-name="Path 860" d="M23.275,22.27l-5.693-5.721a7.937,7.937,0,0,0-.6-10.74h0a8.11,8.11,0,0,0-11.386,0,8.209,8.209,0,0,0,0,11.443h0a8.067,8.067,0,0,0,10.787.5l5.693,5.721ZM11.39,17.954A6.575,6.575,0,0,1,6.8,6.712a6.487,6.487,0,0,1,9.189,0h0a6.753,6.753,0,0,1,0,9.335A6.57,6.57,0,0,1,11.39,17.954Z" transform="translate(0 0)" fill="#fff"/>
  </g>
</svg>
